<svg width="46" height="46" viewBox="0 0 46 46" fill="none" xmlns="http://www.w3.org/2000/svg"><path d="M43.304 11.923h1.934v27.072H28.801l-1.933 1.934h-7.735l-1.934-1.934H.762V11.923h1.934" stroke="#404145" stroke-width="1.5" stroke-miterlimit="10"/><path d="M6.563 9.022H4.63v26.106h12.569c1.876 0 3.142.522 3.867 1.933H23" fill="#A6EACA"/><path d="M6.563 9.022H4.63v26.106h12.569c1.876 0 3.142.522 3.867 1.933H23" stroke="#404145" stroke-width="1.5" stroke-miterlimit="10"/><path d="M39.437 9.022h1.933v26.106H28.801c-1.875 0-3.142.522-3.867 1.933H23" fill="#A6EACA"/><path d="M39.437 9.022h1.933v26.106H28.801c-1.875 0-3.142.522-3.867 1.933H23" stroke="#404145" stroke-width="1.5" stroke-miterlimit="10"/><path d="M24.934 37.061H23V14.823c0-3.142 1.354-6.149 4.428-6.845L37.503 5v26.105l-10.075 2.978c-1.682.464-2.137 1.393-2.494 2.978zm-3.867 0H23V14.823c0-3.142-1.353-6.149-4.428-6.845L8.497 5v26.105l10.075 2.978c1.682.464 2.137 1.393 2.495 2.978z" fill="#fff" stroke="#404145" stroke-width="1.5" stroke-miterlimit="10"/></svg>