<svg width="46" height="46" viewBox="0 0 46 46" fill="none" xmlns="http://www.w3.org/2000/svg"><path d="M15.96 36.36l2.6-1.5c.96-.55 1.28-1.78.73-2.73l-1-1.73" stroke="#404145" stroke-width="1.5" stroke-miterlimit="10"/><path d="M13.102 33.4l.37.63c.42.73.97 1.37 1.61 1.91 0 0 3.88 2.74 5.12 3.76 1.96 1.61.72 3.05-.23 3.6l-.87.5c-1.73 1-3.28-.44-4.1-1.1-.82-.66-5.12-3.76-5.12-3.76-.65-.53-1.2-1.18-1.61-1.91l-.37-.63" fill="#A6EACA"/><path d="M13.102 33.4l.37.63c.42.73.97 1.37 1.61 1.91 0 0 3.88 2.74 5.12 3.76 1.96 1.61.72 3.05-.23 3.6l-.87.5c-1.73 1-3.28-.44-4.1-1.1-.82-.66-5.12-3.76-5.12-3.76-.65-.53-1.2-1.18-1.61-1.91l-.37-.63" stroke="#404145" stroke-width="1.5" stroke-miterlimit="10"/><path d="M28.01 13.24c1.91-1.11 4.39-.39 5.46 1.46 1.07 1.86.45 4.36-1.46 5.46" fill="#A6EACA"/><path d="M28.01 13.24c1.91-1.11 4.39-.39 5.46 1.46 1.07 1.86.45 4.36-1.46 5.46" stroke="#404145" stroke-width="1.5" stroke-miterlimit="10"/><path d="M21.37 5.08c-1.56 5.07-4.04 10.86-6.98 12.56L4 23.64a6.012 6.012 0 00-2.2 8.2l.5.87a6.012 6.012 0 008.2 2.2l10.39-6c2.95-1.7 9.2-.95 14.37.23.85.19 1.52-.72 1.08-1.48L23.19 4.88c-.43-.75-1.56-.63-1.82.2zm-6.98 12.56l6.5 11.26" stroke="#404145" stroke-width="1.5" stroke-miterlimit="10"/><path d="M32.93 8.55L34.69 2m3.84 16.25l6.56 1.76m-8.32-7.21l5.54-3.2" stroke="#404145" stroke-width="1.5" stroke-miterlimit="10" stroke-linecap="round"/></svg>