<svg width="46" height="46" viewBox="0 0 46 46" fill="none" xmlns="http://www.w3.org/2000/svg"><path d="M36.784 29.322c-6.99-2.423-17.612 2.423-28.05 1.49-.279 0-1.025-.092-1.025-.092v7.361s.746.094 1.026.094c10.437.932 21.06-3.914 28.049-1.491.28.093.932.372.932.372v-7.361c.093 0-.653-.28-.932-.373z" fill="#A6EACA"/><path d="M6.032 34.727c-1.305-.932-3.448-.746-4.38-.466 0 0 .28-1.398 2.423-2.982 0 0-.466-2.05-3.075-2.516 0 0 3.262-3.262 10.437-.28 0 0-.373.373-.932.839m28.981 3.168c1.305.746 3.448.746 4.38.466 0 0-.28 1.398-2.423 2.982 0 0 .466 2.05 3.075 2.516 0 0-3.54 3.448-10.437.28 0 0 .373-.373.932-.839" fill="#A6EACA"/><path d="M36.784 29.322c-6.99-2.423-17.612 2.423-28.05 1.49-.279 0-1.025-.092-1.025-.092v7.361s.746.094 1.026.094c10.437.932 21.06-3.914 28.049-1.491.28.093.932.372.932.372v-7.361c.093 0-.653-.28-.932-.373z" stroke="#404145" stroke-width="1.5" stroke-miterlimit="10" stroke-linecap="round" stroke-linejoin="round"/><path d="M6.032 34.727c-1.305-.932-3.448-.746-4.38-.466 0 0 .28-1.398 2.423-2.982 0 0-.466-2.05-3.075-2.516 0 0 3.262-3.262 10.437-.28 0 0-.373.373-.932.839m28.981 3.168c1.305.746 3.448.746 4.38.466 0 0-.28 1.398-2.423 2.982 0 0 .466 2.05 3.075 2.516 0 0-3.54 3.448-10.437.28 0 0 .373-.373.932-.839M23.924 5.093l3.541 6.43 7.176 1.398-5.032 5.312.932 7.268-6.617-3.168-6.616 3.168.932-7.268-5.032-5.312 7.175-1.398 3.541-6.43z" stroke="#404145" stroke-width="1.5" stroke-miterlimit="10" stroke-linecap="round" stroke-linejoin="round"/><path d="M14.698 19.817c-.652-.28-1.118-.56-1.118-.56l-5.498 2.61.746-6.057-4.194-4.38 5.964-1.118L13.488 5s1.304 2.423 2.142 4.007m16.494 0A169.727 169.727 0 0134.361 5l2.889 5.312 5.964 1.118-4.194 4.38.746 6.057-5.498-2.61s-.466.187-1.212.56" stroke="#404145" stroke-width="1.5" stroke-miterlimit="10" stroke-linecap="round" stroke-linejoin="round"/></svg>